<?xml version="1.0" encoding="UTF-8"?>
<svg id="Layer_2" data-name="Layer 2" xmlns="http://www.w3.org/2000/svg" xmlns:xlink="http://www.w3.org/1999/xlink" viewBox="0 0 204.28 204.28">
  <defs>
    <style>
      .cls-1 {
        fill: url(#linear-gradient);
      }

      .cls-2 {
        fill: #023f88;
      }

      .cls-3 {
        fill: #1e4384;
      }

      .cls-4 {
        fill: #3eb87b;
      }

      .cls-5 {
        fill: url(#linear-gradient-3);
      }

      .cls-6 {
        fill: url(#linear-gradient-4);
      }

      .cls-7 {
        fill: url(#linear-gradient-2);
      }

      .cls-8 {
        fill: #eb2227;
        fill-rule: evenodd;
      }

      .cls-9 {
        fill: none;
        opacity: 0;
        stroke: #231f20;
        stroke-dasharray: 0 12;
        stroke-miterlimit: 10;
        stroke-width: .25px;
      }
    </style>
    <linearGradient id="linear-gradient" x1="108.93" y1="125.25" x2="108.93" y2="125.25" gradientUnits="userSpaceOnUse">
      <stop offset=".47" stop-color="#023f88"/>
      <stop offset=".49" stop-color="#074986"/>
      <stop offset=".6" stop-color="#1a7082"/>
      <stop offset=".71" stop-color="#2a8f7f"/>
      <stop offset=".81" stop-color="#35a67c"/>
      <stop offset=".91" stop-color="#3bb37b"/>
      <stop offset="1" stop-color="#3eb87b"/>
    </linearGradient>
    <linearGradient id="linear-gradient-2" x1="108.98" y1="126.99" x2="109.03" y2="126.99" xlink:href="#linear-gradient"/>
    <linearGradient id="linear-gradient-3" x1="108.95" y1="124.41" x2="108.96" y2="124.41" xlink:href="#linear-gradient"/>
    <linearGradient id="linear-gradient-4" x1="44.11" y1="94.71" x2="174.14" y2="94.71" xlink:href="#linear-gradient"/>
  </defs>
  <g id="Layer_1-2" data-name="Layer 1">
    <g>
      <g>
        <g>
          <path class="cls-2" d="m114.35,134.52c-.29.14-.84.33-1.37.39-.8.09-1.36-.05-1.77-.35-.42-.32-.68-.82-.74-1.4-.15-1.41.81-2.24,2.13-2.39.55-.06.97-.01,1.2.06l-.12.89c-.24-.07-.52-.11-.98-.06-.67.08-1.18.49-1.09,1.31.09.75.63,1.14,1.29,1.06.15-.02.29-.05.34-.07l-.08-.7-.54.06-.1-.84,1.59-.18.25,2.22Z"/>
          <path class="cls-2" d="m118.46,131.76c.27,1.28-.33,2.26-1.56,2.52-1.24.26-2.11-.53-2.35-1.63-.24-1.16.32-2.24,1.55-2.5,1.28-.27,2.14.55,2.36,1.61Zm-2.78.63c.16.75.58,1.14,1.09,1.03.52-.11.72-.67.56-1.39-.14-.69-.56-1.14-1.08-1.03-.5.11-.73.66-.58,1.39Z"/>
          <path class="cls-2" d="m118.35,129.7l1.05-.31.9,3.03,1.51-.45.26.88-2.55.76-1.16-3.91Z"/>
          <path class="cls-2" d="m121.19,128.91c.3-.18.73-.38,1.18-.55.73-.28,1.23-.34,1.71-.23.53.13.98.5,1.26,1.19.3.77.2,1.39-.06,1.82-.29.49-.86.87-1.6,1.16-.49.19-.83.29-1.04.33l-1.45-3.73Zm2.18,2.59c.06,0,.15-.05.22-.07.66-.25,1.01-.8.68-1.66-.29-.74-.87-.92-1.48-.68-.16.06-.25.11-.3.15l.88,2.27Z"/>
          <path class="cls-2" d="m128.26,128.44l-1.32.64.33.68,1.47-.72.39.8-2.46,1.19-1.78-3.67,2.38-1.16.39.8-1.4.68.29.59,1.32-.64.39.79Z"/>
          <path class="cls-2" d="m129.74,129.53l-2.08-3.51,1.11-.66,1.19.75c.4.24.88.58,1.28.9h.01c-.33-.44-.63-.92-.94-1.44l-.49-.83.86-.51,2.08,3.51-.99.59-1.29-.81c-.42-.26-.92-.59-1.34-.92h-.02c.3.47.63.99.97,1.56l.51.86-.86.51Z"/>
          <path class="cls-2" d="m132.74,122.77l.88-.65,1.49,2.02c.71.96.51,1.65-.28,2.23-.18.13-.44.28-.64.35l-.43-.77c.13-.05.29-.13.43-.23.28-.21.37-.47.04-.92l-1.5-2.03Z"/>
          <path class="cls-2" d="m134.83,121.15l1.51,1.76c.4.47.79.59,1.12.31.33-.28.28-.66-.14-1.15l-1.51-1.76.83-.71,1.46,1.71c.82.96.76,1.85-.11,2.59-.85.73-1.69.64-2.54-.35l-1.45-1.69.83-.71Z"/>
          <path class="cls-2" d="m137,119.33c.14-.21.49-.62.84-.98.4-.41.68-.63,1.01-.75.33-.12.7-.08.98.2.25.24.35.61.15,1.07h.01c.45-.25.92-.21,1.27.13.27.27.36.61.32.95-.05.38-.31.84-.92,1.46-.35.35-.62.59-.8.72l-2.86-2.8Zm1.84.29l.15-.16c.32-.33.36-.6.18-.79-.17-.17-.41-.14-.66.12-.13.13-.19.21-.23.27l.57.56Zm1.24,1.22c.06-.05.13-.12.23-.22.25-.26.37-.58.11-.83-.25-.24-.56-.11-.85.18l-.18.19.69.68Z"/>
          <path class="cls-2" d="m140.16,115.86l3.08,2.67-.72.83-3.08-2.67.72-.82Z"/>
          <path class="cls-2" d="m140.5,115.48l.67-.86,2.5,1.94.97-1.24.72.56-1.64,2.1-3.22-2.51Z"/>
          <path class="cls-2" d="m145.75,112.37l-.82,1.22.62.42.91-1.36.74.5-1.52,2.27-3.39-2.27,1.47-2.2.74.5-.87,1.29.55.37.82-1.22.73.49Z"/>
          <path class="cls-2" d="m147.39,109.55l-.73,1.27.65.37.81-1.42.78.44-1.35,2.37-3.54-2.02,1.31-2.3.78.44-.77,1.35.57.33.73-1.27.77.44Z"/>
        </g>
        <g>
          <path class="cls-2" d="m67.95,112.08c.03.28.14.68.36,1.02.2.31.41.4.59.29.16-.11.16-.32.04-.8-.17-.71-.1-1.3.41-1.63.61-.39,1.4-.18,1.96.68.27.41.38.75.42,1.04l-.86.28c-.03-.19-.1-.51-.32-.85-.18-.28-.38-.37-.53-.27-.17.11-.13.34,0,.88.17.76.02,1.25-.45,1.56-.59.38-1.39.25-2.04-.75-.27-.41-.42-.88-.44-1.14l.87-.32Z"/>
          <path class="cls-2" d="m72.8,113.88l-3.3,2.4-.64-.88,3.3-2.4.64.88Z"/>
          <path class="cls-2" d="m69.93,116.9l3.13-2.61.83.99-.55,1.3c-.17.43-.44.96-.69,1.41h.01c.37-.38.8-.76,1.27-1.15l.74-.62.64.77-3.13,2.61-.74-.89.6-1.4c.19-.45.44-1.01.69-1.47v-.02c-.42.37-.88.78-1.39,1.2l-.77.64-.64-.77Z"/>
          <path class="cls-2" d="m74.96,122.29c-.16-.06-.5-.26-.84-.61-1.07-1.08-.87-2.23-.1-2.99,1.02-1.01,2.28-.78,3.14.09.33.33.54.67.59.85l-.76.45c-.07-.18-.2-.41-.43-.64-.44-.45-1.09-.57-1.68.02-.53.52-.54,1.16-.01,1.69.19.19.43.36.6.44l-.5.71Z"/>
          <path class="cls-2" d="m78.37,123.22l-1.11-.96-.49.57,1.24,1.07-.59.67-2.06-1.79,2.67-3.08,2,1.74-.59.67-1.17-1.02-.43.5,1.11.96-.58.67Z"/>
          <path class="cls-2" d="m81.58,123.99h0s-.84-.17-.84-.17l.33-.77,1.2.24.73.51-2.26,3.22-.86-.61,1.71-2.43Z"/>
          <path class="cls-2" d="m82.22,127.08c.1.07.17.12.33.21.23.13.51.23.74.23.3,0,.55-.1.72-.25h0c-.21.03-.45-.03-.74-.2-.55-.34-.85-1.02-.43-1.7.4-.67,1.3-.88,2.06-.42.94.57.91,1.52.46,2.27-.42.69-.93,1.07-1.53,1.18-.53.1-1.11-.04-1.71-.38-.12-.07-.25-.16-.32-.21l.43-.72Zm1.57-1.22c-.14.24-.16.54.12.71.18.11.34.1.44.05.06-.03.1-.08.16-.19.16-.26.25-.64-.06-.82-.21-.13-.49-.04-.67.26Z"/>
          <path class="cls-2" d="m88.91,127.2l-.31.6-2.89,2.18-1.03-.53,2.79-1.97h0s-1.56-.81-1.56-.81l.41-.8,2.59,1.32Z"/>
          <path class="cls-2" d="m88.8,131.43l.35-.81-1.57-.68.28-.65,2.19-1.61,1.25.54-.89,2.06.4.17-.32.74-.4-.17-.35.81-.94-.41Zm.67-1.55l.27-.62c.1-.23.22-.46.34-.71h-.02c-.22.19-.42.37-.66.57l-.57.47h0s.66.29.66.29Z"/>
        </g>
        <g>
          <path class="cls-3" d="m79.22,50.19l.88,1.23,1.08-.77-.88-1.23.89-.64,2.38,3.31-.89.64-.94-1.31-1.08.77.94,1.31-.89.64-2.38-3.31.89-.64Z"/>
          <path class="cls-3" d="m82.77,47.81l2.16,3.46-.93.58-2.16-3.46.93-.58Z"/>
          <path class="cls-3" d="m85.32,51l-1.93-3.6,1.14-.61,1.16.8c.39.25.86.62,1.24.96h.01c-.31-.45-.6-.95-.88-1.48l-.46-.85.88-.47,1.93,3.6-1.02.54-1.25-.87c-.4-.27-.9-.63-1.3-.97h-.02c.28.48.59,1.02.9,1.6l.47.88-.88.47Z"/>
          <path class="cls-3" d="m87.24,45.46c.3-.19.71-.4,1.15-.6.72-.31,1.22-.39,1.7-.3.54.11,1,.46,1.3,1.14.33.76.26,1.38.01,1.83-.27.5-.82.91-1.56,1.22-.48.21-.82.32-1.02.37l-1.59-3.67Zm2.28,2.51c.06-.01.15-.05.22-.08.65-.27.98-.84.61-1.68-.32-.73-.9-.89-1.5-.63-.16.07-.25.12-.29.16l.97,2.23Z"/>
          <path class="cls-3" d="m92.29,43.39l.71,2.2c.19.59.5.85.91.72.41-.13.52-.5.32-1.12l-.71-2.2,1.04-.33.69,2.14c.39,1.2-.02,2-1.11,2.35-1.06.34-1.81-.06-2.21-1.31l-.68-2.12,1.04-.33Z"/>
          <path class="cls-3" d="m96.03,45.38c.27.06.69.1,1.09,0,.36-.09.51-.25.47-.45-.04-.19-.25-.26-.73-.31-.72-.08-1.26-.35-1.4-.94-.16-.7.3-1.38,1.3-1.62.47-.11.83-.1,1.12-.05l-.02.9c-.19-.03-.51-.08-.91.01-.32.08-.47.24-.43.41.05.2.28.23.82.3.78.09,1.19.4,1.32.95.16.69-.24,1.39-1.39,1.67-.48.11-.97.1-1.22.03v-.93Z"/>
          <path class="cls-3" d="m99.59,42.5l-1.03.16-.14-.91,3.15-.5.14.91-1.05.16.49,3.12-1.08.17-.49-3.12Z"/>
          <path class="cls-3" d="m103.15,44.26l-.15.96-1.13.09.85-4.16,1.45-.12,1.54,3.97-1.18.09-.34-.92-1.05.08Zm.84-.88l-.25-.72c-.08-.22-.18-.55-.27-.78h-.01c-.04.25-.07.59-.11.82l-.12.74.76-.06Z"/>
          <path class="cls-3" d="m105.92,45.01l.04-4.08h1.29s.64,1.27.64,1.27c.22.41.45.96.63,1.44h.02c-.06-.54-.07-1.11-.06-1.72v-.96s1.01,0,1.01,0l-.04,4.08h-1.15s-.68-1.37-.68-1.37c-.22-.43-.48-.99-.67-1.48h-.02c.02.55.03,1.17.02,1.83v1s-1.01,0-1.01,0Z"/>
          <path class="cls-3" d="m111.65,41.18c.3-.01.73,0,1.35.08.58.07.99.23,1.24.48.25.24.39.62.34,1.03-.05.41-.23.75-.52.95-.36.25-.85.32-1.4.25-.11-.01-.2-.03-.26-.05l-.17,1.37-1.07-.13.5-3.99Zm.85,1.92c.06.02.13.03.25.05.42.05.71-.13.76-.48.04-.3-.14-.53-.55-.58-.16-.02-.27-.02-.32-.01l-.13,1.03Z"/>
          <path class="cls-3" d="m117.3,44.51l-1.44-.29-.15.74,1.61.32-.18.88-2.68-.54.81-4,2.59.52-.18.88-1.52-.31-.13.65,1.44.29-.17.87Z"/>
          <path class="cls-3" d="m119.2,43.43l-1-.28.25-.88,3.07.86-.25.88-1.02-.29-.86,3.04-1.05-.3.86-3.04Z"/>
          <path class="cls-3" d="m122.04,43.36c.31.06.75.18,1.27.37.59.21.98.45,1.19.77.18.28.21.6.07.97-.17.48-.66.69-1,.69v.02c.21.2.26.5.23.87-.03.43-.1,1.03-.09,1.21l-1.05-.38c-.02-.13,0-.47.05-.98.06-.5-.04-.64-.36-.76l-.17-.06-.53,1.44-1.02-.37,1.38-3.78Zm.43,1.98l.27.1c.39.14.68.03.78-.25.11-.29-.02-.52-.36-.65-.19-.07-.3-.1-.35-.1l-.33.91Z"/>
          <path class="cls-3" d="m128.26,48.08c-.56,1.19-1.63,1.61-2.77,1.07-1.15-.54-1.37-1.69-.89-2.72.5-1.08,1.61-1.6,2.74-1.07,1.19.56,1.38,1.72.91,2.71Zm-2.6-1.17c-.33.69-.22,1.26.25,1.48.48.23.98-.11,1.29-.77.3-.64.24-1.25-.24-1.48-.47-.22-.98.09-1.3.77Z"/>
          <path class="cls-3" d="m129.67,46.6l.95.54-1.57,2.75,1.36.78-.46.79-2.31-1.32,2.03-3.54Z"/>
          <path class="cls-3" d="m133.24,51.68l-1.22-.82-.42.62,1.36.91-.5.74-2.27-1.52,2.27-3.39,2.2,1.47-.5.74-1.29-.87-.37.55,1.22.82-.49.73Z"/>
          <path class="cls-3" d="m136.11,50.79l-1.44,1.81c-.38.48-.43.89-.09,1.16.34.27.7.15,1.11-.35l1.44-1.81.86.68-1.4,1.76c-.78.99-1.67,1.09-2.57.38-.87-.69-.95-1.54-.14-2.56l1.38-1.74.86.68Z"/>
          <path class="cls-3" d="m139.23,57.07c.31-.34.69-.74,1.13-1.19h-.01c-.47.29-1.02.6-1.42.83l-1.28.74-.61-.6.75-1.25c.23-.39.56-.91.89-1.38h0c-.42.39-.86.81-1.19,1.13l-1.06,1-.72-.7,3.03-2.75,1.05,1.03-.57.97c-.24.4-.53.87-.82,1.29h.02c.43-.26.93-.58,1.31-.8l.98-.57,1.03,1-2.7,3.06-.76-.74.99-1.08Z"/>
        </g>
        <path class="cls-2" d="m42.05,62.67s-4.51,34.82,25.8,31.04c27.51-3.43,39.21,21.23,37.49,34.37-1.3,14.44-11.18,35.28-36.49,35.28s-38.72-22.07-38.72-36.87l9.74-6.83s.38,28.65,31.13,31.69c30.75,3.04,32.49-20.91,32.49-27.13s-6.53-28.22-35.64-22.78c-29.11,5.44-29.84-29.56-25.81-38.76Z"/>
        <g>
          <polygon class="cls-8" points="101.7 62.15 99.99 62.15 99.99 66.31 101.7 66.31 101.7 70.46 95.82 70.46 95.82 66.31 97.53 66.31 97.53 62.15 95.82 62.15 89.94 62.15 88.23 62.15 88.23 66.31 89.94 66.31 89.94 78.77 88.23 78.77 88.23 82.93 89.94 82.93 95.82 82.93 97.53 82.93 97.53 78.77 95.82 78.77 95.82 74.62 101.7 74.62 101.7 78.77 99.99 78.77 99.99 82.93 101.7 82.93 107.58 82.93 109.28 82.93 109.28 78.77 107.58 78.77 107.58 66.31 109.28 66.31 109.28 62.15 107.58 62.15 101.7 62.15"/>
          <path class="cls-8" d="m122.35,62.15h-11.31v4.16h1.52v4.16h-.01v4.16h.01v4.16h-1.52v4.16h9.29v-4.16h-1.9v-4.16h3.91v-.02c3.44,0,6.22-2.79,6.22-6.22s-2.79-6.22-6.22-6.22Zm-1.06,8.31h-2.86v-4.16h2.86c1.15,0,2.08.93,2.08,2.08s-.93,2.08-2.08,2.08Z"/>
        </g>
        <g>
          <path class="cls-1" d="m108.93,125.22s0,.04,0,.06c0-.02,0-.04,0-.06h0Z"/>
          <path class="cls-7" d="m109.03,127.27s0,0,0,0c-.02-.18-.03-.36-.05-.54.01.18.03.37.05.55Z"/>
          <path class="cls-5" d="m108.95,124.42s0,0,0,0c0,0,0-.02,0-.03,0,0,0,.02,0,.03Z"/>
          <path class="cls-6" d="m172.36,62.15s.04.28.08.78c-.03-.26-.05-.52-.08-.78,0,0-5.82,20.13-28,20.13,0,0-27.65-2.06-37.13,28.73,0,1.23,0,7.92,0,10.32,0-2.4,0-9.09,0-10.32-9.48-30.79-37.13-28.73-37.13-28.73-12.42,0-18.97-6.31-22.34-11.87h21.71c1.37-2.94,3.07-5.72,5.08-8.27h-30.1v.06s-.01-.06-.01-.06c-2.48,21.91,8.89,30.46,23.18,29.44,35.42-2.81,39.61,30.61,39.61,30.61,0,0,4.19-33.42,39.61-30.61,12.05.86,23.7-5.09,25.55-20.13-.95,10.18-5.76,24.74-25.78,22.24-25.02-3.12-37.11,17.6-37.67,30.72,0,0,0,0,0,0,0,.13-.01.27-.01.4,0,.01,0,.03,0,.04,0,.01,0,.03,0,.04,0,0,0,0,0,0,0,.11,0,.22,0,.33,0,.04,0,.07,0,.11,0-.02,0-.03,0-.05,0,.02,0,.03,0,.05,0,.13,0,.26,0,.38h0s0,0,0,.01c0,.14,0,.28.01.42,0-.14,0-.28-.01-.42,0,.53.04,1.04.09,1.54,0,0,0,0,0,0,.69-.03,1.38-.08,2.07-.15-.1-1.16-.13-2.16-.13-2.92,0-6.14,6.53-28.22,35.64-22.78,29.11,5.44,29.78-30.07,25.75-39.27Z"/>
        </g>
        <g>
          <path class="cls-2" d="m70.05,80.07c.17-.01.57-.03,1.15-.03s1.35.02,2.29.09c.45-1.94,1.06-3.84,1.84-5.69,1.74-4.12,4.24-7.83,7.43-11.01,3.18-3.18,6.89-5.68,11.01-7.43,4.27-1.81,8.8-2.72,13.48-2.72s9.21.92,13.48,2.72c4.12,1.74,7.83,4.24,11.01,7.43,3.18,3.18,5.68,6.89,7.43,11.01.78,1.85,1.4,3.75,1.84,5.69.93-.07,1.71-.08,2.29-.08s.97.02,1.15.03c.48,0,.95-.02,1.41-.04-3.65-17.98-19.55-31.51-38.61-31.51s-34.96,13.53-38.61,31.52c.46.02.93.03,1.41.03Z"/>
          <path class="cls-2" d="m101.07,122.01c-2.5-.45-4.94-1.17-7.3-2.17-4.12-1.74-7.83-4.24-11.01-7.43-2.82-2.82-5.1-6.05-6.8-9.61-1.61.03-3.3.15-5.04.39,5.21,12.38,16.57,21.54,30.26,23.66.08-1.01.11-1.91.11-2.64,0-.59-.07-1.33-.23-2.19Z"/>
          <path class="cls-2" d="m138.54,102.8c-1.7,3.57-3.98,6.79-6.8,9.61-3.18,3.18-6.89,5.68-11.01,7.43-3.69,1.56-7.59,2.45-11.61,2.67-.2,1.7-.23,3.31-.08,4.77h0c15.57-.7,28.79-10.43,34.54-24.08-1.74-.23-3.42-.36-5.04-.39Z"/>
        </g>
        <g>
          <path class="cls-4" d="m107.51,145.5l.16-.54c.03-.12.09-.18.15-.18.07,0,.15-.01.25-.01h6c.19,0,.26.07.21.22l-.17.54c-.03.11-.09.17-.16.18-.07.01-.19.02-.34.02h-.46c-.02.14-.04.33-.07.57-.03.24-.06.51-.09.82-.03.31-.06.63-.09.99-.03.35-.05.71-.07,1.08,0,.17-.05.37-.12.6-.07.23-.17.45-.28.66-.11.21-.23.39-.35.54-.12.14-.23.21-.34.21s-.17-.04-.2-.11c-.03-.07-.05-.17-.04-.3,0-.12.02-.26.04-.4.02-.15.04-.34.07-.58.03-.24.05-.5.08-.79-.1.07-.28.15-.53.25-.25.1-.52.15-.82.15-.16,0-.34-.04-.55-.11-.21-.07-.41-.18-.6-.32-.19-.14-.34-.31-.46-.53-.12-.21-.16-.46-.14-.74.03-.32.06-.67.1-1.04.04-.37.07-.69.1-.96h-1.07c-.19,0-.26-.07-.21-.22Zm2.17,2.2c-.01.16.02.31.09.44.07.13.18.24.3.32.13.08.25.12.37.12.16,0,.34-.05.52-.15.18-.1.35-.22.51-.35.15-.13.27-.23.34-.3.03-.34.07-.68.1-1.03.03-.34.06-.69.09-1.03h-2.11c0,.11-.02.26-.04.45s-.04.39-.07.6c-.02.21-.04.39-.06.56-.02.17-.03.29-.04.36Z"/>
          <path class="cls-4" d="m111.4,142.14c0-.18.06-.33.18-.45.12-.12.27-.17.45-.17.2,0,.35.06.46.18.11.12.17.27.17.44,0,.18-.06.33-.18.45-.12.12-.27.17-.45.17s-.34-.06-.46-.18c-.12-.12-.17-.27-.17-.44Z"/>
          <path class="cls-4" d="m113.29,145.5l.16-.54c.03-.12.09-.18.15-.18.07,0,.15-.01.25-.01h7.75c.19,0,.26.07.21.22l-.17.54c-.03.11-.09.17-.16.18-.07.01-.19.02-.34.02h-.49c-.02.14-.04.33-.07.57-.03.24-.06.51-.09.82-.03.31-.06.63-.09.99-.03.35-.05.71-.07,1.08,0,.17-.05.37-.12.59-.07.22-.17.44-.28.66-.11.21-.23.39-.35.53-.12.14-.23.21-.34.21s-.17-.03-.2-.1c-.03-.06-.04-.19-.03-.38.01-.19.04-.46.09-.82-.21.13-.45.24-.72.34-.27.1-.55.14-.85.14-.37,0-.71-.07-1.01-.21-.3-.14-.54-.34-.71-.59-.18-.25-.27-.53-.27-.85,0-.15.03-.3.09-.45.06-.15.13-.29.2-.4.07-.12.13-.19.16-.23h-1.36c-.17,0-.23-.07-.18-.22l.2-.61c.03-.07.07-.12.12-.13.05-.01.12-.02.19-.02.13,0,.29,0,.5,0,.2,0,.41,0,.64,0s.43,0,.63,0c.19,0,.35,0,.45,0,.15,0,.31.02.48.06s.32.09.44.15c.12.06.18.13.18.19,0,.04-.03.12-.08.25-.05.12-.11.24-.18.34-.07.11-.13.16-.18.16-.06,0-.16-.04-.3-.11-.14-.07-.25-.11-.35-.11-.08,0-.18.04-.29.13-.11.09-.2.19-.28.31-.08.12-.12.24-.12.36,0,.21.06.4.18.58.12.18.28.32.46.42.18.11.37.16.55.16s.38-.06.58-.17c.2-.12.38-.25.54-.4.16-.15.29-.27.38-.37.04-.36.08-.72.11-1.09.03-.37.06-.7.09-1.01.03-.31.05-.55.06-.72h-5.99c-.19,0-.26-.07-.21-.22Z"/>
          <path class="cls-4" d="m120.82,145.5l.16-.54c.03-.12.09-.18.15-.18.07,0,.15-.01.25-.01h6.72c.19,0,.26.07.21.22l-.17.54c-.03.11-.09.17-.16.18-.07.01-.19.02-.34.02h-.49c-.02.14-.04.33-.07.57-.03.24-.06.51-.09.82-.03.31-.06.63-.09.99-.03.35-.05.71-.07,1.08,0,.17-.05.37-.12.6-.07.23-.17.45-.28.66s-.23.39-.35.54c-.12.14-.23.21-.34.21s-.17-.04-.2-.11c-.03-.07-.05-.17-.04-.3,0-.12.02-.26.04-.4.03-.18.06-.42.09-.71.03-.3.06-.63.1-1,.03-.36.07-.73.1-1.09-.22,0-.47-.02-.76-.03-.29-.01-.56-.02-.82-.04-.26-.01-.46-.02-.6-.02-.28,0-.5.1-.67.3-.17.2-.25.45-.25.76,0,.17.04.33.13.48.09.15.19.28.31.4.12.12.24.21.35.28.11.07.18.1.22.1.06,0,.14-.04.24-.12.1-.08.17-.12.21-.12.03,0,.06.02.07.06.01.04.02.09.02.14,0,.07-.04.18-.12.32-.08.14-.18.28-.31.42-.13.14-.26.27-.39.37s-.26.15-.37.15c-.12,0-.27-.07-.43-.2-.17-.13-.33-.32-.5-.55-.16-.23-.3-.5-.41-.8-.11-.3-.16-.61-.16-.93,0-.25.05-.49.15-.74.1-.25.25-.47.44-.68.19-.2.43-.37.7-.5.28-.13.58-.19.92-.19.16,0,.36,0,.61,0,.25,0,.51,0,.78.01.27,0,.51,0,.72,0l.07-.78h-4.96c-.19,0-.26-.07-.21-.22Z"/>
          <path class="cls-4" d="m127.21,145.5l.16-.54c.03-.12.09-.18.16-.18.08,0,.19-.01.34-.01h9.01c.19,0,.26.07.21.22l-.17.54c-.03.11-.09.17-.16.18-.07.01-.19.02-.34.02h-.49c-.02.19-.05.46-.09.82-.04.35-.08.76-.12,1.21-.04.46-.07.93-.1,1.42,0,.17-.05.37-.12.59-.07.22-.17.44-.28.66s-.23.39-.35.53c-.12.14-.23.21-.34.21-.15,0-.23-.09-.25-.28-.01-.18.02-.53.1-1.05-.2.12-.43.21-.69.29-.26.07-.54.11-.85.11s-.63-.06-.92-.19c-.29-.13-.52-.32-.7-.57-.18-.26-.27-.57-.27-.95,0-.22.03-.42.1-.61.06-.19.15-.37.26-.53h-.98c-.23,0-.42.05-.57.15-.15.1-.26.22-.33.38-.07.15-.11.31-.11.46,0,.22.04.42.13.61.09.19.2.35.32.49.13.14.25.25.36.33.12.08.2.12.26.12s.11-.02.18-.06c.06-.04.11-.06.15-.06.02,0,.04,0,.05.03.01.02.02.05.02.09,0,.08-.04.19-.12.32-.08.13-.18.26-.31.38-.12.13-.25.23-.38.32-.13.09-.25.13-.34.13s-.22-.07-.39-.2-.33-.33-.49-.57-.3-.53-.41-.86c-.11-.33-.17-.68-.17-1.06s.09-.73.27-1.04c.18-.31.45-.55.8-.73.35-.18.78-.27,1.28-.27h2.94c.28,0,.53.01.76.04.22.03.39.05.5.08l.06-.72h-7.36c-.19,0-.26-.07-.21-.22Zm4.84,2.83c0,.19.06.36.17.51.11.15.26.26.43.34.17.08.35.12.52.12s.35-.06.53-.17c.18-.11.34-.24.5-.39.15-.15.27-.27.35-.38l.08-.83c-.2-.07-.43-.15-.68-.22-.25-.07-.47-.11-.66-.11-.21,0-.41.05-.6.16-.19.11-.34.25-.45.42-.12.17-.17.35-.17.55Z"/>
          <path class="cls-4" d="m134.58,142.89c0-.12.03-.25.1-.4.06-.15.15-.29.26-.43.11-.14.22-.25.35-.34.12-.09.25-.13.37-.13.18,0,.41.07.66.22.26.15.52.34.8.58.27.24.53.5.77.79.24.29.44.57.6.84.16.28.25.52.27.73h.54c.19,0,.26.07.21.22l-.17.54c-.03.11-.09.17-.16.18-.07.01-.19.02-.34.02h-.16c-.02.14-.04.33-.07.57-.03.24-.06.51-.09.82-.03.31-.06.63-.09.99-.03.35-.05.71-.07,1.08,0,.17-.05.37-.12.6-.07.23-.17.45-.28.66s-.23.39-.35.54c-.12.14-.23.21-.34.21s-.17-.04-.2-.11c-.03-.07-.05-.17-.04-.3,0-.12.02-.26.04-.4.03-.18.06-.42.09-.73.03-.31.06-.65.1-1.03.04-.37.07-.75.11-1.12.03-.37.07-.72.1-1.03.03-.31.05-.56.07-.75h-1.2c-.18,0-.25-.07-.2-.22l.16-.54c.03-.12.08-.18.15-.18.06,0,.14-.01.24-.01h.95c.01-.05.02-.12.03-.2,0-.08.01-.15.01-.21,0-.12-.07-.24-.21-.38-.14-.14-.33-.27-.55-.4-.22-.13-.46-.25-.7-.35-.24-.11-.46-.19-.67-.25s-.35-.09-.45-.09c-.04,0-.08.02-.13.07-.04.05-.09.1-.13.15-.04.05-.08.08-.11.08s-.06-.03-.09-.09c-.02-.06-.04-.13-.04-.19Z"/>
          <path class="cls-4" d="m139.24,142.14c0-.18.06-.33.18-.45.12-.12.27-.17.45-.17.2,0,.35.06.46.18.11.12.17.27.17.44,0,.18-.06.33-.18.45-.12.12-.27.17-.45.17s-.34-.06-.46-.18c-.12-.12-.17-.27-.17-.44Z"/>
          <path class="cls-4" d="m141.14,145.5l.16-.54c.03-.12.09-.18.16-.18.07,0,.19-.01.34-.01h9.24c.19,0,.26.07.21.22l-.17.54c-.03.11-.09.17-.16.18-.08.01-.19.02-.34.02h-3.62c-.02.14-.04.33-.07.57-.02.24-.05.51-.09.82.22-.18.46-.34.72-.48.27-.15.52-.22.78-.22.22,0,.44.06.67.17.23.11.45.27.64.46.2.19.36.41.48.65.12.24.18.48.18.74,0,.23-.05.46-.16.69-.11.23-.23.44-.39.64-.15.19-.31.35-.46.46-.16.12-.29.17-.39.17-.1,0-.21-.04-.34-.12-.13-.08-.26-.19-.39-.32-.13-.13-.23-.26-.31-.4-.08-.14-.12-.26-.12-.37,0-.04,0-.09.02-.15.01-.06.04-.09.08-.09s.09.02.15.07c.06.04.12.09.18.14.06.05.11.07.15.07.05,0,.13-.03.22-.08.1-.05.19-.13.3-.22.1-.09.19-.19.26-.29s.11-.2.11-.31c0-.11-.04-.24-.11-.39-.07-.15-.17-.28-.3-.4-.13-.12-.27-.17-.44-.17-.12,0-.26.05-.41.16-.15.11-.31.23-.47.39-.16.15-.31.31-.45.47-.14.16-.26.3-.35.41l-.02.38c0,.17-.05.37-.12.59-.07.22-.17.44-.28.66-.11.21-.23.39-.35.53-.12.14-.23.21-.34.21s-.17-.04-.2-.11c-.03-.07-.05-.17-.04-.29.01-.12.02-.25.04-.39l.06-.54c-.2.12-.43.21-.69.29-.26.07-.54.11-.85.11s-.63-.06-.92-.19c-.29-.13-.52-.32-.7-.57-.18-.26-.27-.57-.27-.95,0-.29.07-.57.2-.83.13-.26.31-.5.55-.7.23-.2.5-.37.8-.48.3-.12.63-.18.98-.18.28,0,.53.01.76.04.22.03.39.05.5.08l.06-.72h-4.45c-.19,0-.26-.07-.21-.22Zm1.93,2.76c0,.19.06.36.17.52s.26.28.43.38c.17.1.35.14.52.14s.35-.06.53-.17c.18-.11.34-.24.5-.39.15-.15.27-.27.35-.38l.08-.83c-.2-.07-.44-.15-.7-.22-.26-.07-.48-.11-.65-.11-.21,0-.41.06-.6.18-.19.12-.34.27-.45.43-.12.17-.17.31-.17.44Z"/>
          <path class="cls-4" d="m150.27,145.5l.16-.54c.03-.12.08-.18.15-.18.06,0,.14-.01.24-.01h2.51c.19,0,.26.07.21.22l-.17.54c-.03.11-.09.17-.16.18-.07.01-.19.02-.34.02h-.25c-.02.14-.04.33-.07.57-.03.24-.06.51-.09.82-.03.31-.06.63-.09.99-.03.35-.05.71-.07,1.08,0,.17-.05.37-.12.6-.07.23-.17.45-.28.66s-.23.39-.35.54c-.12.14-.23.21-.34.21s-.17-.04-.2-.11c-.03-.07-.05-.17-.04-.3,0-.12.02-.26.04-.4.03-.18.06-.42.09-.73.03-.31.06-.65.1-1.03.04-.37.07-.75.11-1.12.03-.37.07-.72.1-1.03.03-.31.05-.56.07-.75h-1c-.18,0-.25-.07-.2-.22Z"/>
          <path class="cls-4" d="m116.2,154.07l.16-.54c.03-.12.09-.18.16-.18.07,0,.19-.01.34-.01h6.28c.19,0,.26.07.21.22l-.17.54c-.03.11-.09.17-.16.18-.07.01-.19.02-.34.02h-.45c-.02.14-.04.33-.07.57-.03.24-.06.51-.09.82-.03.31-.06.63-.09.99-.03.35-.05.71-.07,1.08,0,.17-.05.37-.12.6-.07.23-.17.45-.28.66s-.23.39-.35.54c-.12.14-.23.21-.34.21s-.17-.04-.2-.11c-.03-.07-.05-.17-.04-.3,0-.12.02-.26.04-.4.02-.18.05-.41.08-.71.03-.3.07-.62.1-.98-.15,0-.34-.01-.56-.02-.22,0-.45-.01-.68-.02-.23,0-.44-.01-.62-.02-.04.14-.12.3-.22.48-.11.18-.23.35-.38.48-.14.14-.29.21-.43.21-.12,0-.26-.05-.41-.14-.15-.1-.29-.21-.4-.36-.12-.14-.17-.29-.17-.43,0-.16.06-.31.18-.47.12-.16.27-.3.45-.43.18-.13.38-.22.58-.29.03-.14.06-.33.09-.58.03-.25.06-.5.09-.76.03-.26.05-.47.06-.62h-1.95c-.19,0-.26-.07-.21-.22Zm2.95,2.14c.29,0,.59,0,.92,0,.33,0,.61,0,.84,0l.17-1.93h-1.8c0,.13-.02.3-.03.53-.01.22-.03.46-.05.7-.02.25-.04.48-.06.69Z"/>
          <path class="cls-4" d="m122.26,154.07l.16-.54c.03-.12.09-.18.16-.18.08,0,.19-.01.34-.01h5.56c.19,0,.26.07.21.22l-.17.54c-.03.11-.09.17-.16.18-.07.01-.19.02-.34.02h-.65l-.07.64c-.01.12-.07.23-.16.35-.09.12-.21.21-.35.29-.14.07-.29.11-.44.11h-1.31c-.1,0-.2.05-.31.16-.11.11-.16.23-.16.36,0,.14.06.26.17.34.12.09.22.13.31.13.12,0,.27-.03.47-.09.2-.06.44-.09.71-.09.18,0,.36.05.53.16.17.11.32.25.45.41.13.16.24.33.32.51.08.18.12.33.12.47,0,.17-.04.35-.13.53-.09.18-.19.35-.32.51-.13.15-.25.28-.37.37-.12.1-.22.14-.31.14s-.18-.03-.28-.09c-.11-.06-.21-.14-.31-.22-.1-.09-.18-.18-.25-.28-.07-.1-.1-.17-.1-.23,0-.05,0-.09.02-.13.01-.04.03-.06.05-.06.04,0,.08.02.13.07.04.05.08.07.11.07.05,0,.12-.04.2-.09.09-.05.17-.11.25-.19s.11-.15.11-.21c0-.06-.03-.16-.09-.29-.06-.13-.13-.26-.23-.37-.1-.11-.2-.17-.33-.17s-.28.06-.47.17c-.19.11-.38.26-.56.43-.18.18-.34.36-.46.56-.13.2-.19.38-.19.54s.06.32.19.46c.13.15.28.28.45.4.17.12.32.23.45.33.13.1.19.17.19.22,0,.05-.05.09-.14.12-.1.03-.22.05-.38.05s-.33-.03-.55-.09c-.22-.06-.43-.16-.65-.29-.21-.13-.39-.29-.53-.48-.14-.19-.21-.42-.21-.67,0-.33.11-.65.33-.96.22-.31.5-.59.82-.84-.19-.12-.36-.27-.5-.47-.14-.2-.21-.42-.22-.66,0-.15.04-.31.11-.48.07-.17.17-.33.29-.48.12-.15.26-.27.42-.37.16-.1.32-.14.49-.14h.61c.26,0,.55,0,.88-.02l.05-.45h-3.77c-.19,0-.26-.07-.21-.22Z"/>
          <path class="cls-4" d="m127.71,154.07l.16-.54c.03-.12.08-.18.15-.18.06,0,.14-.01.24-.01h2.51c.19,0,.26.07.21.22l-.17.54c-.03.11-.09.17-.16.18-.07.01-.19.02-.34.02h-.25c-.02.14-.04.33-.07.57-.03.24-.06.51-.09.82-.03.31-.06.63-.09.99-.03.35-.05.71-.07,1.08,0,.17-.05.37-.12.6-.07.23-.17.45-.28.66-.11.21-.23.39-.35.54-.12.14-.23.21-.34.21s-.17-.04-.2-.11c-.03-.07-.05-.17-.04-.3,0-.12.02-.26.04-.4.03-.18.06-.42.09-.73.03-.31.06-.65.1-1.03.04-.37.07-.75.11-1.12.03-.37.07-.72.1-1.03.03-.31.05-.56.07-.75h-1c-.18,0-.25-.07-.2-.22Z"/>
          <path class="cls-4" d="m129.98,154.07l.16-.54c.03-.12.09-.18.15-.18.07,0,.15-.01.25-.01h5.16c.19,0,.26.07.21.22l-.17.54c-.03.11-.09.17-.16.18-.07.01-.19.02-.34.02h-.61c.05.12.1.24.13.36.03.12.05.23.05.34,0,.22-.06.44-.17.65-.12.22-.26.43-.44.63-.18.2-.37.39-.58.57-.21.17-.41.32-.59.45-.19.13-.34.22-.46.29.06.06.15.14.28.23.13.09.26.18.4.28.14.09.28.17.41.23.13.06.22.1.29.1.05,0,.11-.03.19-.1.08-.07.16-.13.23-.2.07-.06.13-.1.15-.1.03,0,.06.03.09.08.02.05.04.11.04.18,0,.13-.04.27-.12.43-.08.16-.18.3-.3.44-.12.14-.25.25-.38.34-.13.09-.25.13-.35.13-.13,0-.29-.06-.5-.18-.2-.12-.42-.28-.64-.48-.23-.2-.46-.43-.68-.68-.23-.25-.44-.51-.64-.78-.1-.14-.18-.22-.25-.24s-.09-.07-.09-.14c0-.05.03-.13.1-.22.06-.09.14-.19.23-.29.09-.1.18-.18.28-.25.09-.07.16-.1.21-.1.06,0,.13.03.2.1.07.06.14.13.22.19.07.06.14.1.2.1.1,0,.22-.06.36-.17.15-.11.29-.25.44-.42.15-.17.28-.34.38-.51.1-.17.15-.31.15-.42s-.05-.23-.14-.37c-.09-.14-.2-.25-.34-.35-.13-.1-.26-.15-.37-.15h-2.43c-.19,0-.26-.07-.21-.22Z"/>
          <path class="cls-4" d="m134.92,154.07l.16-.54c.03-.12.09-.18.15-.18.07,0,.15-.01.25-.01h9.07c.19,0,.26.07.21.22l-.17.54c-.03.11-.09.17-.16.18-.07.01-.19.02-.34.02h-.49c-.02.14-.04.33-.07.57-.03.24-.06.51-.09.82-.03.31-.06.63-.09.99-.03.35-.05.71-.07,1.08,0,.17-.05.37-.12.6-.08.23-.17.45-.28.66-.11.21-.23.39-.35.54-.12.14-.23.21-.34.21s-.17-.04-.2-.11c-.03-.07-.05-.17-.04-.3,0-.12.02-.26.04-.4.03-.18.06-.42.09-.72.03-.31.06-.64.1-1.01.04-.36.07-.73.11-1.09-.22,0-.47-.02-.77-.03-.29-.01-.57-.02-.83-.04-.26-.01-.46-.02-.59-.02s-.24.05-.31.16c-.07.11-.11.21-.11.3s.04.18.12.28c.08.1.17.18.27.25.1.07.18.1.25.1.04,0,.09-.02.15-.07.06-.04.11-.09.17-.13s.1-.06.12-.06c.03,0,.06.03.07.1.01.06.02.12.02.17,0,.08-.03.19-.1.31-.07.13-.15.25-.25.38-.1.13-.2.23-.31.32-.11.09-.2.13-.29.13-.08,0-.18-.04-.32-.12-.14-.08-.28-.2-.43-.34-.15-.15-.28-.31-.38-.51-.1-.19-.15-.39-.15-.61,0-.12.02-.23.06-.34.04-.11.09-.22.15-.33h-.88c-.35,0-.6.09-.76.27-.16.18-.24.38-.24.62,0,.22.04.42.13.61.09.19.2.35.32.49.13.14.25.25.36.33.12.08.2.12.26.12s.11-.02.18-.06c.06-.04.11-.06.15-.06.02,0,.04,0,.05.03.01.02.02.05.02.09,0,.08-.04.19-.12.32-.08.13-.18.26-.31.38-.12.13-.25.23-.38.32-.13.09-.25.13-.34.13s-.22-.07-.39-.2-.33-.33-.49-.57-.3-.53-.41-.86c-.11-.33-.17-.68-.17-1.06s.09-.72.27-1.01c.18-.28.45-.5.8-.65.35-.15.78-.23,1.28-.23h1.26c.28,0,.58,0,.88,0,.3,0,.59,0,.87,0h1.23l.07-.77h-7.31c-.19,0-.26-.07-.21-.22Z"/>
        </g>
      </g>
      <rect class="cls-9" x=".12" y=".12" width="204.03" height="204.03"/>
    </g>
  </g>
</svg>